<svg id="layer1" viewBox="0 0 900 200" width="900" height="200" xmlns="http://www.w3.org/2000/svg" xmlns:xlink="http://www.w3.org/1999/xlink" version="1.1"><path d="M0 66L25 66.2C50 66.3 100 66.7 150 64C200 61.3 250 55.7 300 58.7C350 61.7 400 73.3 450 75.3C500 77.3 550 69.7 600 69C650 68.3 700 74.7 750 76.8C800 79 850 77 875 76L900 75L900 201L875 201C850 201 800 201 750 201C700 201 650 201 600 201C550 201 500 201 450 201C400 201 350 201 300 201C250 201 200 201 150 201C100 201 50 201 25 201L0 201Z" fill="#98cd67"/><path d="M0 127L25 124C50 121 100 115 150 114.2C200 113.3 250 117.7 300 120.3C350 123 400 124 450 124.2C500 124.3 550 123.7 600 119.5C650 115.3 700 107.7 750 106.3C800 105 850 110 875 112.5L900 115L900 201L875 201C850 201 800 201 750 201C700 201 650 201 600 201C550 201 500 201 450 201C400 201 350 201 300 201C250 201 200 201 150 201C100 201 50 201 25 201L0 201Z" fill="#00ac9f"/><path d="M0 163L25 159.2C50 155.3 100 147.7 150 147C200 146.3 250 152.7 300 151.7C350 150.7 400 142.3 450 142.8C500 143.3 550 152.7 600 156.8C650 161 700 160 750 156.3C800 152.7 850 146.3 875 143.2L900 140L900 201L875 201C850 201 800 201 750 201C700 201 650 201 600 201C550 201 500 201 450 201C400 201 350 201 300 201C250 201 200 201 150 201C100 201 50 201 25 201L0 201Z" fill="#277da1"/></svg>