<svg id="visual" viewBox="0 0 900 200" width="900" height="200" xmlns="http://www.w3.org/2000/svg" xmlns:xlink="http://www.w3.org/1999/xlink" version="1.1"><rect x="0" y="0" width="900" height="200" fill="#212529"/><path d="M0 57L25 59.5C50 62 100 67 150 72.3C200 77.7 250 83.3 300 88C350 92.7 400 96.3 450 97C500 97.7 550 95.3 600 92.3C650 89.3 700 85.7 750 83.2C800 80.7 850 79.3 875 78.7L900 78L900 201L875 201C850 201 800 201 750 201C700 201 650 201 600 201C550 201 500 201 450 201C400 201 350 201 300 201C250 201 200 201 150 201C100 201 50 201 25 201L0 201Z" fill="#98cd67"/><path d="M0 98L25 97C50 96 100 94 150 92.7C200 91.3 250 90.7 300 95.7C350 100.7 400 111.3 450 113.8C500 116.3 550 110.7 600 111C650 111.3 700 117.7 750 123.2C800 128.7 850 133.3 875 135.7L900 138L900 201L875 201C850 201 800 201 750 201C700 201 650 201 600 201C550 201 500 201 450 201C400 201 350 201 300 201C250 201 200 201 150 201C100 201 50 201 25 201L0 201Z" fill="#00ac9f"/><path d="M0 150L25 149.2C50 148.3 100 146.7 150 150.8C200 155 250 165 300 167.3C350 169.7 400 164.3 450 162.3C500 160.3 550 161.7 600 161.8C650 162 700 161 750 161.2C800 161.3 850 162.7 875 163.3L900 164L900 201L875 201C850 201 800 201 750 201C700 201 650 201 600 201C550 201 500 201 450 201C400 201 350 201 300 201C250 201 200 201 150 201C100 201 50 201 25 201L0 201Z" fill="#277da1"/></svg>