<svg xmlns="http://www.w3.org/2000/svg" xmlns:xlink="http://www.w3.org/1999/xlink" viewBox="0 0 400 400"><defs><style>.a,.b,.c{fill:none;stroke-miterlimit:10;stroke-width:14px;}.a{stroke:#99cc67;}.b{stroke:#3caa8b;}.c{stroke:#f9c751;}.d{fill:#f3733b;}.e{fill:#f9c751;}</style><symbol id="a" viewBox="0 0 314 314"><circle class="a" cx="157" cy="157" r="150"/><circle class="b" cx="157" cy="157" r="117.5"/><circle class="c" cx="157" cy="157" r="85"/></symbol></defs><use width="314" height="314" transform="translate(43 43)" xlink:href="#a"/><path class="d" d="M247.114,185.308c0-18.3-10.726-38.013-34.385-38.013H172.823a10.5,10.5,0,0,0-10.41,10.411V247.3a10.489,10.489,0,0,0,20.978,0V168.273h29.338c12.618,0,13.564,12.934,13.564,17.035a20.445,20.445,0,0,1-3.154,10.095,10.483,10.483,0,0,0,17.823,11.041A41.5,41.5,0,0,0,247.114,185.308Z"/><path class="e" d="M214.173,203.422a10.41,10.41,0,0,0-20.82,0,10.411,10.411,0,1,0,20.82,0Z"/></svg>