<svg viewBox="0 50 900 150" preserveAspectRatio="none" xmlnsxlink="http://www.w3.org/1999/xlink" version="1.1" xmlns="http://www.w3.org/2000/svg">
    <path d="M 0 85 L 25 85.2 C 50 85.3 100 85.7 150 83 C 200 80.3 250 74.7 300 77.7 C 350 80.7 400 92.3 450 94.3 C 500 96.3 550 88.7 600 88 C 650 87.3 700 93.7 750 95.8 C 800 98 850 96 875 95 L 900 94 L 900 131 L 875 128.5 C 850 126 800 121 750 122.3 C 700 123.7 650 131.3 600 135.5 C 550 139.7 500 140.3 450 140.2 C 400 140 350 139 300 136.3 C 250 133.7 200 129.3 150 130.2 C 100 131 50 137 25 140 L 0 143 L 0 85 Z" fill="#00ac9f"></path>
    <path d="M 0 141.83 L 25 138.83 C 50 135.83 100 129.83 150 129.03 C 200 128.13 250 132.53 300 135.13 C 350 137.83 400 138.83 450 139.03 C 500 139.13 550 138.53 600 134.33 C 650 130.13 700 122.53 750 121.13 C 800 119.83 850 124.83 875 127.33 L 900 129.83 L 900 159.83 L 875 163.03 C 850 166.13 800 172.53 750 176.13 C 700 179.83 650 180.83 600 176.63 C 550 172.53 500 163.13 450 162.63 C 400 162.13 350 170.53 300 171.53 C 250 172.53 200 166.13 150 166.83 C 100 167.53 50 175.13 25 179.03 L 0 182.83 Z" fill="#98cd67"></path>
</svg>